<svg width="87" height="89" viewBox="0 0 87 89" fill="none" xmlns="http://www.w3.org/2000/svg">
<path d="M5.94736 45.941C2.66272 37.8112 6.59047 28.558 14.7202 25.2734L28.0074 19.905C45.9617 12.651 66.3971 21.3253 73.6511 39.2796C79.1779 52.959 72.5689 68.5288 58.8895 74.0556L41.0972 81.2442C31.1807 85.2507 19.8938 80.4597 15.8873 70.5432L5.94736 45.941Z" fill="#6C5DD2"/>
<g clip-path="url(#clip0_1_19)">
<path d="M22.5248 13.7143C17.6665 14.571 14.4117 19.2097 15.2667 24.0585L23.0171 68.0137C23.8721 72.8625 28.5172 76.1083 33.3755 75.2516L77.4167 67.486C82.275 66.6293 85.5299 61.9906 84.6749 57.1418L76.9244 13.1866C76.0694 8.33775 71.4243 5.092 66.566 5.94865L22.5248 13.7143ZM64.3845 31.402L49.8682 52.0903C48.8021 53.6096 46.7102 53.9785 45.2026 52.913L34.8442 45.6751C33.3228 44.612 32.9547 42.5241 34.0231 41.0186C35.0916 39.513 37.1811 39.1304 38.6888 40.1959L46.2957 45.5112L58.8816 27.5568C59.9476 26.0375 62.0396 25.6687 63.5472 26.7341C65.0548 27.7996 65.4368 29.8851 64.3683 31.3907L64.3845 31.402Z" fill="#ECF0F9"/>
</g>
<defs>
<clipPath id="clip0_1_19">
<rect width="62.6089" height="71.4133" fill="white" transform="translate(12.9415 10.8719) rotate(-10)"/>
</clipPath>
</defs>
</svg>
