<svg width="63" height="59" viewBox="0 0 63 59" fill="none" xmlns="http://www.w3.org/2000/svg">
<g clip-path="url(#clip0_1_12)">
<path d="M1.68204 30.179C-0.824884 24.0215 2.14526 17.0241 8.31604 14.55L18.537 10.4519C32.0901 5.0179 47.5406 11.5761 53.0467 25.1001C57.2418 35.4041 52.2715 47.1134 41.9454 51.2537L28.3372 56.7098C20.8102 59.7277 12.2294 56.0855 9.17148 48.5746L1.68204 30.179Z" fill="#24315D"/>
<path d="M15.0733 6.98859C11.3857 7.63385 8.91514 11.128 9.56409 14.7803L15.447 47.8894C16.096 51.5418 19.6217 53.9866 23.3094 53.3414L56.7382 47.4919C60.4259 46.8466 62.8964 43.3525 62.2474 39.7002L56.3645 6.59106C55.7156 2.93871 52.1898 0.493861 48.5022 1.13913L15.0733 6.98859ZM46.8463 20.3118L35.8279 35.8952C35.0187 37.0396 33.4309 37.3174 32.2865 36.5149L24.4242 31.0629C23.2694 30.2622 22.9899 28.6895 23.8009 27.5554C24.6119 26.4214 26.198 26.1332 27.3423 26.9358L33.1162 30.9395L42.6694 17.4154C43.4786 16.271 45.0664 15.9932 46.2108 16.7957C47.3551 17.5983 47.645 19.1692 46.834 20.3032L46.8463 20.3118Z" fill="white"/>
</g>
<defs>
<clipPath id="clip0_1_12">
<rect width="63" height="58" fill="white" transform="translate(0 0.5)"/>
</clipPath>
</defs>
</svg>
