<svg width="60" height="56" viewBox="0 0 60 56" fill="none" xmlns="http://www.w3.org/2000/svg">
<g clip-path="url(#clip0_190_234)">
<path d="M1.60197 28.6467C-0.785579 22.7824 2.04313 16.1182 7.92006 13.7619L17.6543 9.859C30.5621 4.68372 45.2768 10.9296 50.5207 23.8096V23.8096C54.516 33.623 49.7824 44.7747 39.948 48.7178L26.9878 53.9141C19.8192 56.7883 11.6471 53.3195 8.73477 46.1663L1.60197 28.6467Z" fill="#246EDC"/>
<path d="M14.3555 6.56056C10.8435 7.1751 8.4906 10.5028 9.10865 13.9812L14.7114 45.5137C15.3295 48.9922 18.6874 51.3206 22.1994 50.7061L54.0364 45.1351C57.5484 44.5206 59.9013 41.1929 59.2833 37.7145L53.6805 6.18197C53.0625 2.70354 49.7046 0.375109 46.1925 0.98965L14.3555 6.56056ZM44.6155 19.2493L34.1218 34.0907C33.3512 35.1806 31.8389 35.4452 30.7491 34.6808L23.2611 29.4885C22.1613 28.7259 21.8952 27.2281 22.6676 26.148C23.4399 25.068 24.9505 24.7935 26.0403 25.5579L31.5393 29.371L40.6375 16.4909C41.4082 15.401 42.9204 15.1363 44.0103 15.9007C45.1001 16.6651 45.3762 18.1611 44.6038 19.2412L44.6155 19.2493Z" fill="#C1CBE8"/>
</g>
<defs>
<clipPath id="clip0_190_234">
<rect width="60" height="55.2381" fill="white" transform="translate(0 0.380951)"/>
</clipPath>
</defs>
</svg>
